<svg width="24" height="40" viewBox="0 0 24 40" fill="none" xmlns="http://www.w3.org/2000/svg">
<path d="M12 39.9965C8.89817 40.0718 5.89307 38.9142 3.64358 36.7775C1.39409 34.6408 0.0838037 31.6994 0 28.5982V8.26121C0.057668 6.01935 1.00129 3.89164 2.62432 2.34381C4.24735 0.795969 6.41759 -0.0459161 8.66 0.0024277C10.9058 -0.0512868 13.0812 0.788205 14.7086 2.33661C16.336 3.88502 17.2824 6.01581 17.34 8.26121V28.6182C17.2568 29.9752 16.6591 31.2493 15.6686 32.1808C14.6782 33.1122 13.3697 33.6308 12.01 33.6308C10.6503 33.6308 9.34179 33.1122 8.35136 32.1808C7.36093 31.2493 6.76317 29.9752 6.68 28.6182V9.84098C6.68 9.31063 6.89071 8.80199 7.26579 8.42698C7.64086 8.05196 8.14957 7.84128 8.68 7.84128C9.21043 7.84128 9.71914 8.05196 10.0942 8.42698C10.4693 8.80199 10.68 9.31063 10.68 9.84098V28.6182C10.7199 28.9428 10.8771 29.2416 11.1221 29.4583C11.3671 29.675 11.6829 29.7947 12.01 29.7947C12.3371 29.7947 12.6529 29.675 12.8979 29.4583C13.1429 29.2416 13.3001 28.9428 13.34 28.6182V8.26121C13.2778 7.07821 12.7515 5.96745 11.8754 5.17002C10.9992 4.37258 9.8438 3.95282 8.66 4.00184C7.47959 3.95821 6.32935 4.38039 5.45752 5.17726C4.58569 5.97414 4.06219 7.08181 4 8.26121V28.5982C4.08326 30.6388 4.97193 32.5632 6.47138 33.95C7.97083 35.3368 9.95884 36.0729 12 35.9971C14.0412 36.0729 16.0292 35.3368 17.5286 33.95C19.0281 32.5632 19.9167 30.6388 20 28.5982V8.26121C20 7.73086 20.2107 7.22223 20.5858 6.84721C20.9609 6.47219 21.4696 6.26151 22 6.26151C22.5304 6.26151 23.0391 6.47219 23.4142 6.84721C23.7893 7.22223 24 7.73086 24 8.26121V28.5982C23.9162 31.6994 22.6059 34.6408 20.3564 36.7775C18.1069 38.9142 15.1018 40.0718 12 39.9965Z" fill="#9E9898"/>
</svg>
