<svg width="35" height="35" viewBox="0 0 35 35" fill="none" xmlns="http://www.w3.org/2000/svg">
<g clip-path="url(#clip0_207_64)">
<path d="M17.5002 0.700195C13.0446 0.700195 8.77141 2.47019 5.6208 5.6208C2.47019 8.77141 0.700195 13.0446 0.700195 17.5002C0.70031 19.7064 1.13497 21.891 1.97935 23.9292C2.82374 25.9674 4.06131 27.8194 5.62142 29.3793C7.18153 30.9393 9.03361 32.1767 11.0719 33.0208C13.1102 33.865 15.2949 34.2994 17.5011 34.2993C19.7073 34.2992 21.8919 33.8646 23.9301 33.0202C25.9683 32.1758 27.8203 30.9382 29.3802 29.3781C30.9402 27.818 32.1775 25.9659 33.0217 23.9276C33.8659 21.8893 34.3003 19.7047 34.3002 17.4984C34.3002 8.2217 26.7769 0.700195 17.5002 0.700195ZM17.5002 30.7985C15.7409 30.8186 13.9951 30.4895 12.3638 29.8303C10.7326 29.171 9.24842 28.1946 7.99721 26.9576C6.746 25.7207 5.75264 24.2478 5.07468 22.6242C4.39673 21.0007 4.04764 19.2587 4.04764 17.4993C4.04764 15.7399 4.39673 13.998 5.07468 12.3744C5.75264 10.7509 6.746 9.27796 7.99721 8.04102C9.24842 6.80408 10.7326 5.82768 12.3638 5.16839C13.9951 4.5091 15.7409 4.18001 17.5002 4.2002C19.2595 4.18001 21.0053 4.5091 22.6365 5.16839C24.2678 5.82768 25.752 6.80408 27.0032 8.04102C28.2544 9.27796 29.2477 10.7509 29.9257 12.3744C30.6037 13.998 30.9528 15.7399 30.9528 17.4993C30.9528 19.2587 30.6037 21.0007 29.9257 22.6242C29.2477 24.2478 28.2544 25.7207 27.0032 26.9576C25.752 28.1946 24.2678 29.171 22.6365 29.8303C21.0053 30.4895 19.2595 30.8186 17.5002 30.7985ZM13.1269 17.0627C14.5759 17.0627 15.7502 15.6924 15.7502 14.0002C15.7502 12.3079 14.5742 10.9377 13.1252 10.9377C11.6762 10.9377 10.5002 12.3079 10.5002 14.0002C10.5002 15.6924 11.6762 17.0627 13.1269 17.0627ZM21.8752 17.0627C23.3259 17.0627 24.5002 15.6924 24.5002 14.0002C24.5002 12.3079 23.3242 10.9377 21.8752 10.9377C20.4262 10.9377 19.2502 12.3097 19.2502 14.0002C19.2502 15.6907 20.4262 17.0627 21.8752 17.0627ZM25.0969 19.8382C24.7881 19.6824 24.4305 19.6537 24.1007 19.7584C23.771 19.8631 23.4954 20.0928 23.3329 20.3982C23.2734 20.5137 21.8122 23.1859 17.5019 23.1859C13.2127 23.1859 11.7427 20.5382 11.6692 20.3999C11.5119 20.0892 11.2375 19.8537 10.9065 19.7452C10.5756 19.6368 10.2151 19.6642 9.90432 19.8216C9.59359 19.9789 9.35808 20.2532 9.24961 20.5842C9.14115 20.9152 9.16861 21.2757 9.32594 21.5864C9.41345 21.7597 11.5099 25.8109 17.5019 25.8109C23.4957 25.8109 25.5887 21.7579 25.6744 21.5847C25.8286 21.2764 25.8544 20.9195 25.7462 20.5922C25.638 20.2649 25.4045 19.9938 25.0969 19.8382Z" fill="#9E9898"/>
</g>
<defs>
<clipPath id="clip0_207_64">
<rect width="35" height="35" fill="white"/>
</clipPath>
</defs>
</svg>
